<?xml version="1.0" encoding="utf-8"?><!-- Uploaded to: SVG Repo, www.svgrepo.com, Generator: SVG Repo Mixer Tools -->
<svg width="800px" height="800px" viewBox="0 0 24 24" fill="none" xmlns="http://www.w3.org/2000/svg">
<path fill-rule="evenodd" clip-rule="evenodd" d="M7 3V4C5.34315 4 4 5.34315 4 7V17C4 18.6569 5.34315 20 7 20L7 21C7 22.6569 8.34315 24 10 24H14C15.6569 24 17 22.6569 17 21V20C18.6569 20 20 18.6569 20 17V13C20.5523 13 21 12.5523 21 12C21 11.4477 20.5523 11 20 11V7C20 5.34315 18.6569 4 17 4V3C17 1.34315 15.6569 0 14 0H10C8.34315 0 7 1.34315 7 3ZM10 2C9.44772 2 9 2.44772 9 3V4H15V3C15 2.44772 14.5523 2 14 2H10ZM7 18C6.44772 18 6 17.5523 6 17V7C6 6.44771 6.44772 6 7 6H17C17.5523 6 18 6.44772 18 7V17C18 17.5523 17.5523 18 17 18H7ZM9 20H15V21C15 21.5523 14.5523 22 14 22H10C9.44772 22 9 21.5523 9 21V20Z" fill="#0F0F0F"/>
</svg>